#define close_width  14
#define close_height 14
static unsigned char close_bits[] = {
 0x00,0xc0,0x00,0xc0,0x0c,0xcc,0x1c,0xce,0x38,0xc7,0xf0,0xc3,
 0xe0,0xc1,0xe0,0xc1,0xf0,0xc3,0x38,0xc7,0x1c,0xce,0x0c,0xcc,
 0x00,0xc0,0x00,0xc0};
